<svg width="124" height="60" viewBox="0 0 124 60" fill="none" xmlns="http://www.w3.org/2000/svg">
<path d="M0.854492 44.8271H6.08398V45.7061H1.80176V47.8838H5.76172V48.7139H1.80176V51.1455H6.15723V52H0.854492V44.8271ZM8.48633 44.8271V49.2607C8.48633 49.7816 8.58398 50.2145 8.7793 50.5596C9.06901 51.0804 9.55729 51.3408 10.2441 51.3408C11.0677 51.3408 11.6276 51.0592 11.9238 50.4961C12.0833 50.1901 12.1631 49.7783 12.1631 49.2607V44.8271H13.1494V48.8555C13.1494 49.7376 13.0306 50.4163 12.793 50.8916C12.3568 51.7575 11.5332 52.1904 10.3223 52.1904C9.11133 52.1904 8.28939 51.7575 7.85645 50.8916C7.61882 50.4163 7.5 49.7376 7.5 48.8555V44.8271H8.48633ZM18.0078 44.8271L20.0684 50.9355L22.1045 44.8271H23.1934L20.5762 52H19.5459L16.9336 44.8271H18.0078ZM23.9258 50.6084C23.9258 50.8623 24.0186 51.0625 24.2041 51.209C24.3896 51.3555 24.6094 51.4287 24.8633 51.4287C25.1725 51.4287 25.472 51.3571 25.7617 51.2139C26.25 50.9762 26.4941 50.5872 26.4941 50.0469V49.3389C26.3867 49.4072 26.2484 49.4642 26.0791 49.5098C25.9098 49.5553 25.7438 49.5879 25.5811 49.6074L25.0488 49.6758C24.7298 49.7181 24.4906 49.7848 24.3311 49.876C24.0609 50.029 23.9258 50.2731 23.9258 50.6084ZM26.0547 48.8311C26.2565 48.805 26.3916 48.7204 26.46 48.5771C26.499 48.499 26.5186 48.3867 26.5186 48.2402C26.5186 47.9408 26.4111 47.7243 26.1963 47.5908C25.9847 47.4541 25.6803 47.3857 25.2832 47.3857C24.8242 47.3857 24.4987 47.5094 24.3066 47.7568C24.1992 47.8936 24.1292 48.097 24.0967 48.3672H23.2764C23.2926 47.7227 23.501 47.2751 23.9014 47.0244C24.305 46.7705 24.7721 46.6436 25.3027 46.6436C25.918 46.6436 26.4176 46.7607 26.8018 46.9951C27.1826 47.2295 27.373 47.5941 27.373 48.0889V51.1016C27.373 51.1927 27.391 51.266 27.4268 51.3213C27.4658 51.3766 27.5456 51.4043 27.666 51.4043C27.7051 51.4043 27.749 51.4027 27.7979 51.3994C27.8467 51.3929 27.8988 51.3848 27.9541 51.375V52.0244C27.8174 52.0635 27.7132 52.0879 27.6416 52.0977C27.57 52.1074 27.4723 52.1123 27.3486 52.1123C27.0459 52.1123 26.8262 52.0049 26.6895 51.79C26.6178 51.6761 26.5674 51.515 26.5381 51.3066C26.359 51.541 26.1019 51.7445 25.7666 51.917C25.4313 52.0895 25.0618 52.1758 24.6582 52.1758C24.1732 52.1758 23.776 52.0293 23.4668 51.7363C23.1608 51.4401 23.0078 51.0706 23.0078 50.6279C23.0078 50.1429 23.1592 49.7669 23.4619 49.5C23.7646 49.2331 24.1618 49.0687 24.6533 49.0068L26.0547 48.8311ZM30.835 46.6191C31.4242 46.6191 31.9027 46.7624 32.2705 47.0488C32.6416 47.3353 32.8646 47.8285 32.9395 48.5283H32.085C32.0329 48.2061 31.9141 47.9391 31.7285 47.7275C31.543 47.5127 31.2451 47.4053 30.835 47.4053C30.2751 47.4053 29.8747 47.6787 29.6338 48.2256C29.4775 48.5804 29.3994 49.0182 29.3994 49.5391C29.3994 50.0632 29.5101 50.5042 29.7314 50.8623C29.9528 51.2204 30.3011 51.3994 30.7764 51.3994C31.141 51.3994 31.429 51.2887 31.6406 51.0674C31.8555 50.8428 32.0036 50.5368 32.085 50.1494H32.9395C32.8418 50.8428 32.5977 51.3506 32.207 51.6729C31.8164 51.9919 31.3167 52.1514 30.708 52.1514C30.0244 52.1514 29.4792 51.9023 29.0723 51.4043C28.6654 50.903 28.4619 50.278 28.4619 49.5293C28.4619 48.6113 28.6849 47.8968 29.1309 47.3857C29.5768 46.8747 30.1449 46.6191 30.835 46.6191ZM35.835 46.6191C36.4242 46.6191 36.9027 46.7624 37.2705 47.0488C37.6416 47.3353 37.8646 47.8285 37.9395 48.5283H37.085C37.0329 48.2061 36.9141 47.9391 36.7285 47.7275C36.543 47.5127 36.2451 47.4053 35.835 47.4053C35.2751 47.4053 34.8747 47.6787 34.6338 48.2256C34.4775 48.5804 34.3994 49.0182 34.3994 49.5391C34.3994 50.0632 34.5101 50.5042 34.7314 50.8623C34.9528 51.2204 35.3011 51.3994 35.7764 51.3994C36.141 51.3994 36.429 51.2887 36.6406 51.0674C36.8555 50.8428 37.0036 50.5368 37.085 50.1494H37.9395C37.8418 50.8428 37.5977 51.3506 37.207 51.6729C36.8164 51.9919 36.3167 52.1514 35.708 52.1514C35.0244 52.1514 34.4792 51.9023 34.0723 51.4043C33.6654 50.903 33.4619 50.278 33.4619 49.5293C33.4619 48.6113 33.6849 47.8968 34.1309 47.3857C34.5768 46.8747 35.1449 46.6191 35.835 46.6191ZM38.8184 46.7949H39.7119V52H38.8184V46.7949ZM38.8184 44.8271H39.7119V45.8232H38.8184V44.8271ZM41.0449 46.7705H41.8799V47.5127C42.1273 47.2067 42.3893 46.987 42.666 46.8535C42.9427 46.7201 43.2503 46.6533 43.5889 46.6533C44.3311 46.6533 44.8324 46.9121 45.0928 47.4297C45.236 47.7129 45.3076 48.1182 45.3076 48.6455V52H44.4141V48.7041C44.4141 48.3851 44.3669 48.1279 44.2725 47.9326C44.1162 47.6071 43.833 47.4443 43.4229 47.4443C43.2145 47.4443 43.0436 47.4655 42.9102 47.5078C42.6693 47.5794 42.4577 47.7227 42.2754 47.9375C42.1289 48.11 42.0329 48.2891 41.9873 48.4746C41.945 48.6569 41.9238 48.9189 41.9238 49.2607V52H41.0449V46.7705ZM47.2852 50.6084C47.2852 50.8623 47.3779 51.0625 47.5635 51.209C47.749 51.3555 47.9688 51.4287 48.2227 51.4287C48.5319 51.4287 48.8314 51.3571 49.1211 51.2139C49.6094 50.9762 49.8535 50.5872 49.8535 50.0469V49.3389C49.7461 49.4072 49.6077 49.4642 49.4385 49.5098C49.2692 49.5553 49.1032 49.5879 48.9404 49.6074L48.4082 49.6758C48.0892 49.7181 47.8499 49.7848 47.6904 49.876C47.4202 50.029 47.2852 50.2731 47.2852 50.6084ZM49.4141 48.8311C49.6159 48.805 49.751 48.7204 49.8193 48.5771C49.8584 48.499 49.8779 48.3867 49.8779 48.2402C49.8779 47.9408 49.7705 47.7243 49.5557 47.5908C49.3441 47.4541 49.0397 47.3857 48.6426 47.3857C48.1836 47.3857 47.8581 47.5094 47.666 47.7568C47.5586 47.8936 47.4886 48.097 47.4561 48.3672H46.6357C46.652 47.7227 46.8604 47.2751 47.2607 47.0244C47.6644 46.7705 48.1315 46.6436 48.6621 46.6436C49.2773 46.6436 49.777 46.7607 50.1611 46.9951C50.542 47.2295 50.7324 47.5941 50.7324 48.0889V51.1016C50.7324 51.1927 50.7503 51.266 50.7861 51.3213C50.8252 51.3766 50.9049 51.4043 51.0254 51.4043C51.0645 51.4043 51.1084 51.4027 51.1572 51.3994C51.2061 51.3929 51.2581 51.3848 51.3135 51.375V52.0244C51.1768 52.0635 51.0726 52.0879 51.001 52.0977C50.9294 52.1074 50.8317 52.1123 50.708 52.1123C50.4053 52.1123 50.1855 52.0049 50.0488 51.79C49.9772 51.6761 49.9268 51.515 49.8975 51.3066C49.7184 51.541 49.4613 51.7445 49.126 51.917C48.7907 52.0895 48.4212 52.1758 48.0176 52.1758C47.5326 52.1758 47.1354 52.0293 46.8262 51.7363C46.5202 51.4401 46.3672 51.0706 46.3672 50.6279C46.3672 50.1429 46.5186 49.7669 46.8213 49.5C47.124 49.2331 47.5212 49.0687 48.0127 49.0068L49.4141 48.8311ZM52.3535 45.3105H53.2422V46.7705H54.0771V47.4883H53.2422V50.9014C53.2422 51.0837 53.304 51.2057 53.4277 51.2676C53.4961 51.3034 53.61 51.3213 53.7695 51.3213C53.8118 51.3213 53.8574 51.3213 53.9062 51.3213C53.9551 51.318 54.012 51.3132 54.0771 51.3066V52C53.9762 52.0293 53.8704 52.0505 53.7598 52.0635C53.6523 52.0765 53.5352 52.083 53.4082 52.083C52.998 52.083 52.7197 51.9788 52.5732 51.7705C52.4268 51.5589 52.3535 51.2855 52.3535 50.9502V47.4883H51.6455V46.7705H52.3535V45.3105ZM54.9609 46.7949H55.8545V52H54.9609V46.7949ZM54.9609 44.8271H55.8545V45.8232H54.9609V44.8271ZM59.2627 51.4336C59.8454 51.4336 60.2441 51.2139 60.459 50.7744C60.6771 50.3317 60.7861 49.8402 60.7861 49.2998C60.7861 48.8115 60.708 48.4144 60.5518 48.1084C60.3044 47.6266 59.8779 47.3857 59.2725 47.3857C58.7354 47.3857 58.3447 47.5908 58.1006 48.001C57.8564 48.4111 57.7344 48.9059 57.7344 49.4854C57.7344 50.042 57.8564 50.5059 58.1006 50.877C58.3447 51.248 58.7321 51.4336 59.2627 51.4336ZM59.2969 46.6191C59.9707 46.6191 60.5404 46.8438 61.0059 47.293C61.4714 47.7422 61.7041 48.403 61.7041 49.2754C61.7041 50.1185 61.499 50.8151 61.0889 51.3652C60.6787 51.9154 60.0423 52.1904 59.1797 52.1904C58.4603 52.1904 57.889 51.9479 57.4658 51.4629C57.0426 50.9746 56.8311 50.3203 56.8311 49.5C56.8311 48.6211 57.054 47.9212 57.5 47.4004C57.946 46.8796 58.5449 46.6191 59.2969 46.6191ZM62.7539 46.7705H63.5889V47.5127C63.8363 47.2067 64.0983 46.987 64.375 46.8535C64.6517 46.7201 64.9593 46.6533 65.2979 46.6533C66.04 46.6533 66.5413 46.9121 66.8018 47.4297C66.945 47.7129 67.0166 48.1182 67.0166 48.6455V52H66.123V48.7041C66.123 48.3851 66.0758 48.1279 65.9814 47.9326C65.8252 47.6071 65.542 47.4443 65.1318 47.4443C64.9235 47.4443 64.7526 47.4655 64.6191 47.5078C64.3783 47.5794 64.1667 47.7227 63.9844 47.9375C63.8379 48.11 63.7419 48.2891 63.6963 48.4746C63.654 48.6569 63.6328 48.9189 63.6328 49.2607V52H62.7539V46.7705ZM74.3555 49.0605L73.2666 45.8916L72.1094 49.0605H74.3555ZM72.7588 44.8271H73.8574L76.46 52H75.3955L74.668 49.8516H71.8311L71.0547 52H70.0586L72.7588 44.8271ZM77.749 50.3594C77.7751 50.6523 77.8483 50.877 77.9688 51.0332C78.1901 51.3164 78.5742 51.458 79.1211 51.458C79.4466 51.458 79.7331 51.388 79.9805 51.248C80.2279 51.1048 80.3516 50.8851 80.3516 50.5889C80.3516 50.3643 80.2523 50.1934 80.0537 50.0762C79.9268 50.0046 79.6761 49.9215 79.3018 49.8271L78.6035 49.6514C78.1576 49.5407 77.8288 49.417 77.6172 49.2803C77.2396 49.0426 77.0508 48.7139 77.0508 48.2939C77.0508 47.7992 77.2282 47.3988 77.583 47.0928C77.9411 46.7868 78.4212 46.6338 79.0234 46.6338C79.8112 46.6338 80.3792 46.8649 80.7275 47.3271C80.9456 47.6201 81.0514 47.9359 81.0449 48.2744H80.2148C80.1986 48.0758 80.1286 47.8952 80.0049 47.7324C79.8031 47.5013 79.4531 47.3857 78.9551 47.3857C78.623 47.3857 78.3708 47.4492 78.1982 47.5762C78.029 47.7031 77.9443 47.8708 77.9443 48.0791C77.9443 48.307 78.0566 48.4893 78.2812 48.626C78.4115 48.7074 78.6035 48.779 78.8574 48.8408L79.4385 48.9824C80.07 49.1354 80.4932 49.2835 80.708 49.4268C81.0498 49.6514 81.2207 50.0046 81.2207 50.4863C81.2207 50.9518 81.0433 51.3538 80.6885 51.6924C80.3369 52.0309 79.7998 52.2002 79.0771 52.2002C78.2992 52.2002 77.7474 52.0244 77.4219 51.6729C77.0996 51.318 76.9271 50.8802 76.9043 50.3594H77.749ZM82.749 50.3594C82.7751 50.6523 82.8483 50.877 82.9688 51.0332C83.1901 51.3164 83.5742 51.458 84.1211 51.458C84.4466 51.458 84.7331 51.388 84.9805 51.248C85.2279 51.1048 85.3516 50.8851 85.3516 50.5889C85.3516 50.3643 85.2523 50.1934 85.0537 50.0762C84.9268 50.0046 84.6761 49.9215 84.3018 49.8271L83.6035 49.6514C83.1576 49.5407 82.8288 49.417 82.6172 49.2803C82.2396 49.0426 82.0508 48.7139 82.0508 48.2939C82.0508 47.7992 82.2282 47.3988 82.583 47.0928C82.9411 46.7868 83.4212 46.6338 84.0234 46.6338C84.8112 46.6338 85.3792 46.8649 85.7275 47.3271C85.9456 47.6201 86.0514 47.9359 86.0449 48.2744H85.2148C85.1986 48.0758 85.1286 47.8952 85.0049 47.7324C84.8031 47.5013 84.4531 47.3857 83.9551 47.3857C83.623 47.3857 83.3708 47.4492 83.1982 47.5762C83.029 47.7031 82.9443 47.8708 82.9443 48.0791C82.9443 48.307 83.0566 48.4893 83.2812 48.626C83.4115 48.7074 83.6035 48.779 83.8574 48.8408L84.4385 48.9824C85.07 49.1354 85.4932 49.2835 85.708 49.4268C86.0498 49.6514 86.2207 50.0046 86.2207 50.4863C86.2207 50.9518 86.0433 51.3538 85.6885 51.6924C85.3369 52.0309 84.7998 52.2002 84.0771 52.2002C83.2992 52.2002 82.7474 52.0244 82.4219 51.6729C82.0996 51.318 81.9271 50.8802 81.9043 50.3594H82.749ZM89.3018 51.4336C89.8844 51.4336 90.2832 51.2139 90.498 50.7744C90.7161 50.3317 90.8252 49.8402 90.8252 49.2998C90.8252 48.8115 90.7471 48.4144 90.5908 48.1084C90.3434 47.6266 89.917 47.3857 89.3115 47.3857C88.7744 47.3857 88.3838 47.5908 88.1396 48.001C87.8955 48.4111 87.7734 48.9059 87.7734 49.4854C87.7734 50.042 87.8955 50.5059 88.1396 50.877C88.3838 51.248 88.7712 51.4336 89.3018 51.4336ZM89.3359 46.6191C90.0098 46.6191 90.5794 46.8438 91.0449 47.293C91.5104 47.7422 91.7432 48.403 91.7432 49.2754C91.7432 50.1185 91.5381 50.8151 91.1279 51.3652C90.7178 51.9154 90.0814 52.1904 89.2188 52.1904C88.4993 52.1904 87.9281 51.9479 87.5049 51.4629C87.0817 50.9746 86.8701 50.3203 86.8701 49.5C86.8701 48.6211 87.0931 47.9212 87.5391 47.4004C87.985 46.8796 88.584 46.6191 89.3359 46.6191ZM94.8096 46.6191C95.3988 46.6191 95.8773 46.7624 96.2451 47.0488C96.6162 47.3353 96.8392 47.8285 96.9141 48.5283H96.0596C96.0075 48.2061 95.8887 47.9391 95.7031 47.7275C95.5176 47.5127 95.2197 47.4053 94.8096 47.4053C94.2497 47.4053 93.8493 47.6787 93.6084 48.2256C93.4521 48.5804 93.374 49.0182 93.374 49.5391C93.374 50.0632 93.4847 50.5042 93.7061 50.8623C93.9274 51.2204 94.2757 51.3994 94.751 51.3994C95.1156 51.3994 95.4036 51.2887 95.6152 51.0674C95.8301 50.8428 95.9782 50.5368 96.0596 50.1494H96.9141C96.8164 50.8428 96.5723 51.3506 96.1816 51.6729C95.791 51.9919 95.2913 52.1514 94.6826 52.1514C93.999 52.1514 93.4538 51.9023 93.0469 51.4043C92.64 50.903 92.4365 50.278 92.4365 49.5293C92.4365 48.6113 92.6595 47.8968 93.1055 47.3857C93.5514 46.8747 94.1195 46.6191 94.8096 46.6191ZM97.793 46.7949H98.6865V52H97.793V46.7949ZM97.793 44.8271H98.6865V45.8232H97.793V44.8271ZM100.693 50.6084C100.693 50.8623 100.786 51.0625 100.972 51.209C101.157 51.3555 101.377 51.4287 101.631 51.4287C101.94 51.4287 102.24 51.3571 102.529 51.2139C103.018 50.9762 103.262 50.5872 103.262 50.0469V49.3389C103.154 49.4072 103.016 49.4642 102.847 49.5098C102.677 49.5553 102.511 49.5879 102.349 49.6074L101.816 49.6758C101.497 49.7181 101.258 49.7848 101.099 49.876C100.828 50.029 100.693 50.2731 100.693 50.6084ZM102.822 48.8311C103.024 48.805 103.159 48.7204 103.228 48.5771C103.267 48.499 103.286 48.3867 103.286 48.2402C103.286 47.9408 103.179 47.7243 102.964 47.5908C102.752 47.4541 102.448 47.3857 102.051 47.3857C101.592 47.3857 101.266 47.5094 101.074 47.7568C100.967 47.8936 100.897 48.097 100.864 48.3672H100.044C100.06 47.7227 100.269 47.2751 100.669 47.0244C101.073 46.7705 101.54 46.6436 102.07 46.6436C102.686 46.6436 103.185 46.7607 103.569 46.9951C103.95 47.2295 104.141 47.5941 104.141 48.0889V51.1016C104.141 51.1927 104.159 51.266 104.194 51.3213C104.233 51.3766 104.313 51.4043 104.434 51.4043C104.473 51.4043 104.517 51.4027 104.565 51.3994C104.614 51.3929 104.666 51.3848 104.722 51.375V52.0244C104.585 52.0635 104.481 52.0879 104.409 52.0977C104.338 52.1074 104.24 52.1123 104.116 52.1123C103.813 52.1123 103.594 52.0049 103.457 51.79C103.385 51.6761 103.335 51.515 103.306 51.3066C103.127 51.541 102.869 51.7445 102.534 51.917C102.199 52.0895 101.829 52.1758 101.426 52.1758C100.941 52.1758 100.544 52.0293 100.234 51.7363C99.9284 51.4401 99.7754 51.0706 99.7754 50.6279C99.7754 50.1429 99.9268 49.7669 100.229 49.5C100.532 49.2331 100.929 49.0687 101.421 49.0068L102.822 48.8311ZM105.762 45.3105H106.65V46.7705H107.485V47.4883H106.65V50.9014C106.65 51.0837 106.712 51.2057 106.836 51.2676C106.904 51.3034 107.018 51.3213 107.178 51.3213C107.22 51.3213 107.266 51.3213 107.314 51.3213C107.363 51.318 107.42 51.3132 107.485 51.3066V52C107.384 52.0293 107.279 52.0505 107.168 52.0635C107.061 52.0765 106.943 52.083 106.816 52.083C106.406 52.083 106.128 51.9788 105.981 51.7705C105.835 51.5589 105.762 51.2855 105.762 50.9502V47.4883H105.054V46.7705H105.762V45.3105ZM108.369 46.7949H109.263V52H108.369V46.7949ZM108.369 44.8271H109.263V45.8232H108.369V44.8271ZM112.671 51.4336C113.254 51.4336 113.652 51.2139 113.867 50.7744C114.085 50.3317 114.194 49.8402 114.194 49.2998C114.194 48.8115 114.116 48.4144 113.96 48.1084C113.713 47.6266 113.286 47.3857 112.681 47.3857C112.144 47.3857 111.753 47.5908 111.509 48.001C111.265 48.4111 111.143 48.9059 111.143 49.4854C111.143 50.042 111.265 50.5059 111.509 50.877C111.753 51.248 112.14 51.4336 112.671 51.4336ZM112.705 46.6191C113.379 46.6191 113.949 46.8438 114.414 47.293C114.88 47.7422 115.112 48.403 115.112 49.2754C115.112 50.1185 114.907 50.8151 114.497 51.3652C114.087 51.9154 113.451 52.1904 112.588 52.1904C111.868 52.1904 111.297 51.9479 110.874 51.4629C110.451 50.9746 110.239 50.3203 110.239 49.5C110.239 48.6211 110.462 47.9212 110.908 47.4004C111.354 46.8796 111.953 46.6191 112.705 46.6191ZM116.162 46.7705H116.997V47.5127C117.244 47.2067 117.507 46.987 117.783 46.8535C118.06 46.7201 118.368 46.6533 118.706 46.6533C119.448 46.6533 119.95 46.9121 120.21 47.4297C120.353 47.7129 120.425 48.1182 120.425 48.6455V52H119.531V48.7041C119.531 48.3851 119.484 48.1279 119.39 47.9326C119.233 47.6071 118.95 47.4443 118.54 47.4443C118.332 47.4443 118.161 47.4655 118.027 47.5078C117.786 47.5794 117.575 47.7227 117.393 47.9375C117.246 48.11 117.15 48.2891 117.104 48.4746C117.062 48.6569 117.041 48.9189 117.041 49.2607V52H116.162V46.7705Z" fill="white"/>
<path d="M37.72 38H25.68V10H37.64V13.6H31.84V21.16H37.08V24.56H31.84V34.4H37.72V38ZM55.0869 33.24C55.0869 34.8667 54.4069 36.12 53.0469 37C51.7135 37.88 50.0069 38.32 47.9269 38.32C45.8469 38.32 44.1535 37.9067 42.8469 37.08C41.4335 36.1733 40.7269 34.9067 40.7269 33.28V10H46.8869V33.56C46.8869 33.8267 46.9669 34.04 47.1269 34.2C47.3135 34.3333 47.5802 34.4 47.9269 34.4C48.2735 34.4 48.5269 34.3333 48.6869 34.2C48.8469 34.04 48.9269 33.8267 48.9269 33.56V10H55.0869V33.24ZM74.0719 10L70.3119 38H61.5919L57.8319 10H63.8319L65.9519 29.56L68.0719 10H74.0719ZM93.4753 38H87.3953L86.3553 30.48H83.5953L82.5553 38H76.4753L81.0753 10H88.8753L93.4753 38ZM85.8353 26.6L84.9553 18.24L84.1153 26.6H85.8353Z" fill="white"/>
<path d="M106.5 18L107.959 22.4914H112.682L108.861 25.2672L110.321 29.7586L106.5 26.9828L102.679 29.7586L104.139 25.2672L100.318 22.4914H105.041L106.5 18Z" fill="#FFCC00"/>
<path d="M12.5 18L13.9593 22.4914H18.6819L14.8613 25.2672L16.3206 29.7586L12.5 26.9828L8.6794 29.7586L10.1387 25.2672L6.31813 22.4914H11.0407L12.5 18Z" fill="#FFCC00"/>
</svg>
